<?xml version="1.0" encoding="UTF-8" standalone="no"?>
<!-- Created with matplotlib (http://matplotlib.org/) -->

<svg
   xmlns:dc="http://purl.org/dc/elements/1.1/"
   xmlns:cc="http://creativecommons.org/ns#"
   xmlns:rdf="http://www.w3.org/1999/02/22-rdf-syntax-ns#"
   xmlns:svg="http://www.w3.org/2000/svg"
   xmlns="http://www.w3.org/2000/svg"
   xmlns:xlink="http://www.w3.org/1999/xlink"
   xmlns:sodipodi="http://sodipodi.sourceforge.net/DTD/sodipodi-0.dtd"
   xmlns:inkscape="http://www.inkscape.org/namespaces/inkscape"
   height="535pt"
   version="1.1"
   viewBox="0 0 756 535"
   width="756pt"
   id="svg252"
   sodipodi:docname="LEDs.svg"
   inkscape:version="0.92.4 (unknown)">
  <metadata
     id="metadata256">
    <rdf:RDF>
      <cc:Work
         rdf:about="">
        <dc:format>image/svg+xml</dc:format>
        <dc:type
           rdf:resource="http://purl.org/dc/dcmitype/StillImage" />
      </cc:Work>
    </rdf:RDF>
  </metadata>
  <sodipodi:namedview
     pagecolor="#ffffff"
     bordercolor="#666666"
     borderopacity="1"
     objecttolerance="10"
     gridtolerance="10"
     guidetolerance="10"
     inkscape:pageopacity="0"
     inkscape:pageshadow="2"
     inkscape:window-width="1920"
     inkscape:window-height="1056"
     id="namedview254"
     showgrid="false"
     inkscape:zoom="1.1626984"
     inkscape:cx="330.96198"
     inkscape:cy="410.32198"
     inkscape:window-x="0"
     inkscape:window-y="24"
     inkscape:window-maximized="1"
     inkscape:current-layer="svg252" />
  <defs
     id="defs4">
    <style
       type="text/css"
       id="style2">
*{stroke-linecap:butt;stroke-linejoin:round;}
  </style>
  </defs>
  <g
     id="matplotlib.axis_1"
     style="stroke-linecap:butt;stroke-linejoin:round">
    <g
       id="xtick_1"
       style="stroke-linecap:butt;stroke-linejoin:round">
      <g
         id="line2d_1"
         style="stroke-linecap:butt;stroke-linejoin:round">
        <defs
           id="defs13">
          <path
             d="M 0,0 V 3.5"
             id="m6effa462ea"
             style="stroke:#000000;stroke-width:0.80000001;stroke-linecap:butt;stroke-linejoin:round"
             inkscape:connector-curvature="0" />
        </defs>
        <g
           id="g17"
           style="stroke-linecap:butt;stroke-linejoin:round">
          <use
             style="stroke:#000000;stroke-width:0.80000001;stroke-linecap:butt;stroke-linejoin:round"
             x="627.73364"
             xlink:href="#m6effa462ea"
             y="476.75519"
             id="use15"
             width="100%"
             height="100%" />
        </g>
      </g>
      <g
         id="text_1"
         style="stroke-linecap:butt;stroke-linejoin:round">
        <!-- $V_{s,1}$ -->
        <defs
           id="defs24">
          <path
             d="m 22.015625,-1.125 -8,63.71875 Q 13.28125,64.796875 6.5,64.796875 q -0.984375,0 -0.984375,1.3125 Q 5.71875,67.1875 6,67.75 6.296875,68.3125 7.171875,68.3125 H 31.59375 q 0.53125,0 0.78125,-0.390625 0.25,-0.390625 0.25,-0.921875 -0.390625,-2.203125 -1.328125,-2.203125 -7.8125,0 -8.296875,-2.6875 L 29.59375,9.8125 60.40625,58.984375 q 0.875,1.65625 0.875,2.640625 0,1.75 -1.59375,2.453125 -1.578125,0.71875 -3.6875,0.71875 -1.015625,0 -1.015625,1.3125 0.1875,0.78125 0.328125,1.21875 0.15625,0.453125 0.453125,0.71875 Q 56.0625,68.3125 56.6875,68.3125 h 19.296875 q 0.921875,0 0.921875,-1.3125 -0.390625,-2.203125 -1.3125,-2.203125 -7.53125,0 -11.78125,-6.59375 -0.1875,-0.1875 -0.328125,-0.1875 L 26.609375,-1.125 Q 25.875,-2.203125 24.703125,-2.203125 h -1.40625 q -1.125,0 -1.28125,1.078125 z"
             id="Cmmi10-56"
             inkscape:connector-curvature="0"
             style="stroke-linecap:butt;stroke-linejoin:round" />
          <path
             d="m 8.6875,6.109375 q 2.6875,-4.59375 10.796875,-4.59375 3.515625,0 6.6875,1.1875 3.171875,1.203125 5.25,3.59375 Q 33.5,8.6875 33.5,12.109375 q 0,2.59375 -1.859375,4.25 -1.859375,1.65625 -4.546875,2.25 l -5.40625,1.0625 q -3.71875,0.9375 -6.109375,3.46875 -2.390625,2.546875 -2.390625,6.15625 0,4.4375 2.40625,7.859375 2.421875,3.421875 6.375,5.21875 3.953125,1.8125 8.203125,1.8125 4.546875,0 8.125,-2.171875 3.59375,-2.171875 3.59375,-6.421875 0,-2.296875 -1.296875,-4.0625 -1.28125,-1.75 -3.578125,-1.75 -1.328125,0 -2.28125,0.859375 -0.9375,0.859375 -0.9375,2.171875 0,1.171875 0.65625,2.265625 0.65625,1.109375 1.75,1.765625 Q 37.3125,37.5 38.484375,37.5 q -0.890625,2.15625 -3.3125,3.125 -2.40625,0.984375 -5.1875,0.984375 -2.546875,0 -5.09375,-1.03125 -2.53125,-1.03125 -4.078125,-3.015625 -1.53125,-1.96875 -1.53125,-4.65625 0,-1.796875 1.265625,-3.171875 Q 21.828125,28.375 23.6875,27.78125 L 29.5,26.609375 Q 32.28125,26.03125 34.59375,24.53125 36.921875,23.046875 38.25,20.765625 39.59375,18.5 39.59375,15.578125 39.59375,11.859375 37.515625,8.25 35.453125,4.640625 32.421875,2.484375 27.09375,-1.125 19.390625,-1.125 q -5.328125,0 -9.78125,2.4375 -4.4375,2.453125 -4.4375,7.28125 0,2.734375 1.578125,4.75 1.59375,2.03125 4.328125,2.03125 1.625,0 2.71875,-0.984375 1.09375,-0.96875 1.09375,-2.578125 0,-2.296875 -1.71875,-4 Q 11.46875,6.109375 9.1875,6.109375 Z"
             id="Cmmi10-73"
             inkscape:connector-curvature="0"
             style="stroke-linecap:butt;stroke-linejoin:round" />
          <path
             d="m 9.90625,-18.015625 q 0,0.4375 0.390625,0.828125 3.625,3.46875 5.625,8.015625 2,4.53125 2,9.5625 v 1.21875 Q 16.3125,0 13.921875,0 11.625,0 10.015625,1.609375 8.40625,3.21875 8.40625,5.515625 q 0,2.34375 1.609375,3.90625 1.609375,1.5625 3.90625,1.5625 3.5625,0 5.078125,-3.296875 1.515625,-3.296875 1.515625,-7.296875 0,-5.5625 -2.234375,-10.5625 Q 16.0625,-15.1875 12.015625,-19.1875 11.625,-19.390625 11.375,-19.390625 q -0.484375,0 -0.984375,0.453125 Q 9.90625,-18.5 9.90625,-18.015625 Z"
             id="Cmmi10-3b"
             inkscape:connector-curvature="0"
             style="stroke-linecap:butt;stroke-linejoin:round" />
          <path
             d="m 9.28125,0 v 3.515625 q 12.5,0 12.5,3.171875 v 52.5 q -5.171875,-2.5 -13.09375,-2.5 v 3.515625 q 12.265625,0 18.515625,6.40625 h 1.40625 q 0.34375,0 0.65625,-0.28125 Q 29.59375,66.0625 29.59375,65.71875 V 6.6875 q 0,-3.171875 12.5,-3.171875 V 0 Z"
             id="Cmr10-31"
             inkscape:connector-curvature="0"
             style="stroke-linecap:butt;stroke-linejoin:round" />
        </defs>
        <g
           transform="matrix(0.16,0,0,-0.16,614.53364,494.7952)"
           id="g34"
           style="stroke-linecap:butt;stroke-linejoin:round">
          <use
             transform="translate(0,0.6875)"
             xlink:href="#Cmmi10-56"
             id="use26"
             style="stroke-linecap:butt;stroke-linejoin:round"
             x="0"
             y="0"
             width="100%"
             height="100%" />
          <use
             transform="matrix(0.7,0,0,0.7,58.300781,-16.31875)"
             xlink:href="#Cmmi10-73"
             id="use28"
             style="stroke-linecap:butt;stroke-linejoin:round"
             x="0"
             y="0"
             width="100%"
             height="100%" />
          <use
             transform="matrix(0.7,0,0,0.7,91.044922,-16.31875)"
             xlink:href="#Cmmi10-3b"
             id="use30"
             style="stroke-linecap:butt;stroke-linejoin:round"
             x="0"
             y="0"
             width="100%"
             height="100%" />
          <use
             transform="matrix(0.7,0,0,0.7,122.71582,-16.31875)"
             xlink:href="#Cmr10-31"
             id="use32"
             style="stroke-linecap:butt;stroke-linejoin:round"
             x="0"
             y="0"
             width="100%"
             height="100%" />
        </g>
      </g>
    </g>
    <g
       id="xtick_2"
       style="stroke-linecap:butt;stroke-linejoin:round">
      <g
         id="line2d_2"
         style="stroke-linecap:butt;stroke-linejoin:round">
        <g
           id="g40"
           style="stroke-linecap:butt;stroke-linejoin:round">
          <use
             style="stroke:#000000;stroke-width:0.80000001;stroke-linecap:butt;stroke-linejoin:round"
             x="681.04797"
             xlink:href="#m6effa462ea"
             y="476.75519"
             id="use38"
             width="100%"
             height="100%" />
        </g>
      </g>
      <g
         id="text_2"
         style="stroke-linecap:butt;stroke-linejoin:round">
        <!-- $V_{s,2}$ -->
        <defs
           id="defs44">
          <path
             d="m 4.984375,0 v 2.6875 q 0,0.25 0.1875,0.53125 l 15.53125,17.1875 q 3.515625,3.8125 5.703125,6.390625 2.203125,2.59375 4.34375,5.96875 2.15625,3.375 3.40625,6.859375 1.25,3.484375 1.25,7.390625 0,4.109375 -1.515625,7.84375 Q 32.375,58.59375 29.375,60.84375 q -3,2.25 -7.25,2.25 -4.34375,0 -7.8125,-2.625 -3.46875,-2.609375 -4.890625,-6.75 Q 9.8125,53.8125 10.5,53.8125 q 2.25,0 3.828125,-1.515625 1.59375,-1.515625 1.59375,-3.90625 0,-2.296875 -1.59375,-3.890625 Q 12.75,42.921875 10.5,42.921875 q -2.34375,0 -3.9375,1.625 -1.578125,1.640625 -1.578125,3.84375 0,3.765625 1.40625,7.046875 1.421875,3.296875 4.078125,5.859375 2.671875,2.578125 6.015625,3.9375 3.34375,1.375 7.09375,1.375 5.71875,0 10.640625,-2.421875 4.9375,-2.421875 7.8125,-6.84375 2.890625,-4.40625 2.890625,-10.328125 0,-4.34375 -1.90625,-8.25 -1.90625,-3.90625 -4.890625,-7.109375 -2.96875,-3.1875 -7.609375,-7.25 Q 25.875,20.359375 24.421875,19 L 13.09375,8.109375 h 9.609375 q 7.078125,0 11.84375,0.109375 4.765625,0.125 5.046875,0.375 Q 40.765625,9.859375 42,17.828125 h 2.921875 L 42.09375,0 Z"
             id="Cmr10-32"
             inkscape:connector-curvature="0"
             style="stroke-linecap:butt;stroke-linejoin:round" />
        </defs>
        <g
           transform="matrix(0.16,0,0,-0.16,667.848,494.7952)"
           id="g54"
           style="stroke-linecap:butt;stroke-linejoin:round">
          <use
             transform="translate(0,0.6875)"
             xlink:href="#Cmmi10-56"
             id="use46"
             style="stroke-linecap:butt;stroke-linejoin:round"
             x="0"
             y="0"
             width="100%"
             height="100%" />
          <use
             transform="matrix(0.7,0,0,0.7,58.300781,-16.31875)"
             xlink:href="#Cmmi10-73"
             id="use48"
             style="stroke-linecap:butt;stroke-linejoin:round"
             x="0"
             y="0"
             width="100%"
             height="100%" />
          <use
             transform="matrix(0.7,0,0,0.7,91.044922,-16.31875)"
             xlink:href="#Cmmi10-3b"
             id="use50"
             style="stroke-linecap:butt;stroke-linejoin:round"
             x="0"
             y="0"
             width="100%"
             height="100%" />
          <use
             transform="matrix(0.7,0,0,0.7,122.71582,-16.31875)"
             xlink:href="#Cmr10-32"
             id="use52"
             style="stroke-linecap:butt;stroke-linejoin:round"
             x="0"
             y="0"
             width="100%"
             height="100%" />
        </g>
      </g>
    </g>
  </g>
  <g
     id="matplotlib.axis_2"
     style="stroke-linecap:butt;stroke-linejoin:round">
    <g
       id="ytick_1"
       style="stroke-linecap:butt;stroke-linejoin:round">
      <g
         id="line2d_3"
         style="stroke-linecap:butt;stroke-linejoin:round">
        <defs
           id="defs60">
          <path
             d="M 0,0 H -3.5"
             id="mae491eee27"
             style="stroke:#000000;stroke-width:0.80000001;stroke-linecap:butt;stroke-linejoin:round"
             inkscape:connector-curvature="0" />
        </defs>
        <g
           id="g64"
           style="stroke-linecap:butt;stroke-linejoin:round">
          <use
             style="stroke:#000000;stroke-width:0.80000001;stroke-linecap:butt;stroke-linejoin:round"
             x="94.589996"
             xlink:href="#mae491eee27"
             y="379.26144"
             id="use62"
             width="100%"
             height="100%" />
        </g>
      </g>
      <g
         id="text_3"
         style="stroke-linecap:butt;stroke-linejoin:round">
        <!-- $I_f$ -->
        <defs
           id="defs69">
          <path
             d="M 4.203125,0 Q 3.21875,0 3.21875,1.3125 3.609375,3.515625 4.5,3.515625 q 5.90625,0 8,0.390625 2.296875,0.53125 2.875,2.984375 L 29.109375,61.8125 q 0.1875,0.984375 0.1875,1.28125 0,0.625 -0.328125,0.890625 -0.3125,0.28125 -0.984375,0.421875 -2,0.390625 -7.578125,0.390625 -1.015625,0 -1.015625,1.3125 0.34375,1.28125 0.53125,1.734375 0.203125,0.46875 1.171875,0.46875 h 27.9375 Q 50,68.3125 50,67 49.953125,66.75 49.796875,66.15625 49.65625,65.578125 49.40625,65.1875 49.171875,64.796875 48.6875,64.796875 q -5.859375,0 -8.109375,-0.390625 Q 38.375,63.875 37.796875,61.375 L 24.125,6.5 Q 23.875,5.28125 23.875,5.171875 23.875,4.9375 23.953125,4.71875 24.03125,4.5 24.25,4.328125 24.46875,4.15625 24.6875,4.078125 24.90625,4 25.203125,3.90625 27.09375,3.515625 32.8125,3.515625 q 0.984375,0 0.984375,-1.3125 Q 33.453125,0.78125 33.25,0.390625 33.0625,0 32.078125,0 Z"
             id="Cmmi10-49"
             inkscape:connector-curvature="0"
             style="stroke-linecap:butt;stroke-linejoin:round" />
          <path
             d="m 9.71875,-16.5 q 1.859375,-1.421875 4.484375,-1.421875 3.578125,0 5.8125,7.90625 0.9375,3.8125 5.078125,25.109375 l 4.59375,24.5 h -8.59375 q -0.96875,0 -0.96875,1.328125 0.390625,2.1875 1.265625,2.1875 h 8.9375 l 1.171875,6.5 q 0.578125,3.03125 1.0625,5.203125 0.5,2.171875 1.0625,4.015625 0.5625,1.859375 1.671875,4.15625 1.71875,3.28125 4.625,5.40625 2.90625,2.125 6.265625,2.125 2.203125,0 4.28125,-0.8125 2.078125,-0.8125 3.390625,-2.421875 1.3125,-1.609375 1.3125,-3.796875 0,-2.546875 -1.6875,-4.4375 -1.671875,-1.875 -4.0625,-1.875 -1.625,0 -2.765625,1 -1.140625,1.015625 -1.140625,2.625 0,2.1875 1.484375,3.828125 1.484375,1.640625 3.6875,1.875 -1.859375,1.421875 -4.59375,1.421875 -1.515625,0 -2.859375,-1.421875 Q 41.890625,65.09375 41.5,63.484375 40.875,60.9375 38.71875,49.703125 L 37.5,43.109375 h 10.296875 q 0.984375,0 0.984375,-1.3125 -0.04687,-0.25 -0.203125,-0.859375 Q 48.4375,40.328125 48.171875,39.953125 47.90625,39.59375 47.515625,39.59375 H 36.8125 L 32.171875,15.1875 Q 31.296875,9.859375 30.140625,4.359375 29,-1.125 26.921875,-6.90625 q -2.0625,-5.796875 -5.296875,-9.703125 -3.21875,-3.90625 -7.609375,-3.90625 -3.375,0 -6.03125,1.9375 -2.65625,1.921875 -2.65625,5.09375 0,2.546875 1.625,4.4375 1.640625,1.875 4.125,1.875 1.671875,0 2.78125,-1 1.125,-1.015625 1.125,-2.625 0,-2.140625 -1.59375,-3.921875 Q 11.8125,-16.5 9.71875,-16.5 Z"
             id="Cmmi10-66"
             inkscape:connector-curvature="0"
             style="stroke-linecap:butt;stroke-linejoin:round" />
        </defs>
        <g
           transform="matrix(0.16,0,0,-0.16,73.99,384.78144)"
           id="g75"
           style="stroke-linecap:butt;stroke-linejoin:round">
          <use
             transform="translate(0,0.6875)"
             xlink:href="#Cmmi10-49"
             id="use71"
             style="stroke-linecap:butt;stroke-linejoin:round"
             x="0"
             y="0"
             width="100%"
             height="100%" />
          <use
             transform="matrix(0.7,0,0,0.7,43.896484,-16.31875)"
             xlink:href="#Cmmi10-66"
             id="use73"
             style="stroke-linecap:butt;stroke-linejoin:round"
             x="0"
             y="0"
             width="100%"
             height="100%" />
        </g>
      </g>
    </g>
    <g
       id="ytick_2"
       style="stroke-linecap:butt;stroke-linejoin:round">
      <g
         id="line2d_4"
         style="stroke-linecap:butt;stroke-linejoin:round">
        <g
           id="g81"
           style="stroke-linecap:butt;stroke-linejoin:round">
          <use
             style="stroke:#000000;stroke-width:0.80000001;stroke-linecap:butt;stroke-linejoin:round"
             x="94.589996"
             xlink:href="#mae491eee27"
             y="357.13095"
             id="use79"
             width="100%"
             height="100%" />
        </g>
      </g>
    </g>
    <g
       id="ytick_3"
       style="stroke-linecap:butt;stroke-linejoin:round">
      <g
         id="line2d_5"
         style="stroke-linecap:butt;stroke-linejoin:round">
        <g
           id="g87"
           style="stroke-linecap:butt;stroke-linejoin:round">
          <use
             style="stroke:#000000;stroke-width:0.80000001;stroke-linecap:butt;stroke-linejoin:round"
             x="94.589996"
             xlink:href="#mae491eee27"
             y="345.16852"
             id="use85"
             width="100%"
             height="100%" />
        </g>
      </g>
      <g
         id="text_4"
         style="stroke-linecap:butt;stroke-linejoin:round">
        <!-- $\frac{V_{s,2}}{R_1}$ -->
        <defs
           id="defs91">
          <path
             d="M 4.890625,0 Q 3.90625,0 3.90625,1.3125 q 0.046875,0.25 0.1875,0.859375 0.15625,0.609375 0.421875,0.96875 0.265625,0.375 0.65625,0.375 6.109375,0 8.546875,0.6875 1.265625,0.4375 1.859375,2.6875 L 29.296875,61.8125 Q 29.5,62.796875 29.5,63.1875 q 0,1.078125 -1.171875,1.21875 -1.90625,0.390625 -7.234375,0.390625 -0.96875,0 -0.96875,1.3125 0.04687,0.25 0.1875,0.859375 0.140625,0.609375 0.40625,0.96875 0.28125,0.375 0.671875,0.375 h 30.3125 q 3.625,0 7.53125,-0.828125 3.90625,-0.828125 7.171875,-2.609375 3.265625,-1.78125 5.359375,-4.75 2.109375,-2.953125 2.109375,-6.90625 0,-5.03125 -3.328125,-8.984375 -3.3125,-3.953125 -8.390625,-6.609375 -5.078125,-2.65625 -9.859375,-3.734375 3.90625,-1.421875 6.390625,-4.53125 2.5,-3.09375 2.5,-7.140625 0,-0.53125 -0.03125,-0.8125 -0.01563,-0.265625 -0.07813,-0.609375 l -0.78125,-8.875 Q 60.20312,9.96875 60.10937,8.59375 60.01562,7.234375 60.01562,6.390625 q 0,-2.734375 0.796875,-4.375 0.8125,-1.625 3.203125,-1.625 3.125,0 5.484375,2.90625 2.375,2.90625 3.109375,6.328125 0.4375,0.875 0.96875,0.875 h 0.9375 q 0.96875,0 0.96875,-1.3125 Q 74.75,6.296875 73.15625,3.703125 71.578125,1.125 69.15625,-0.53125 66.75,-2.203125 63.921875,-2.203125 q -5.859375,0 -9.984375,2.609375 -4.125,2.625 -4.125,8.1875 0,2.09375 0.390625,3.71875 l 2.1875,8.875 q 0.390625,1.21875 0.390625,2.84375 0,4.140625 -2.8125,6.5 -2.796875,2.375 -7.046875,2.375 h -12.3125 L 24.03125,6.5 q -0.25,-0.828125 -0.25,-1.421875 0,-1.03125 1.21875,-1.171875 1.90625,-0.390625 7.171875,-0.390625 1.03125,0 1.03125,-1.3125 Q 32.859375,0.78125 32.65625,0.390625 32.46875,0 31.5,0 Z m 26.3125,35.5 H 42.28125 q 10.890625,0 16.40625,5.515625 2.546875,2.546875 4.03125,6.46875 1.484375,3.9375 1.484375,7.84375 0,3.703125 -2.171875,5.796875 -2.171875,2.109375 -5.375,2.890625 -3.1875,0.78125 -7.046875,0.78125 h -6.6875 q -2.734375,0 -3.625,-0.46875 -0.875,-0.453125 -1.59375,-2.953125 z"
             id="Cmmi10-52"
             inkscape:connector-curvature="0"
             style="stroke-linecap:butt;stroke-linejoin:round" />
        </defs>
        <g
           transform="matrix(0.16,0,0,-0.16,67.11,353.72853)"
           id="g107"
           style="stroke-linecap:butt;stroke-linejoin:round">
          <use
             transform="matrix(0.7,0,0,0.7,0,59.18125)"
             xlink:href="#Cmmi10-56"
             id="use93"
             style="stroke-linecap:butt;stroke-linejoin:round"
             x="0"
             y="0"
             width="100%"
             height="100%" />
          <use
             transform="matrix(0.49,0,0,0.49,40.810547,47.276875)"
             xlink:href="#Cmmi10-73"
             id="use95"
             style="stroke-linecap:butt;stroke-linejoin:round"
             x="0"
             y="0"
             width="100%"
             height="100%" />
          <use
             transform="matrix(0.49,0,0,0.49,63.731445,47.276875)"
             xlink:href="#Cmmi10-3b"
             id="use97"
             style="stroke-linecap:butt;stroke-linejoin:round"
             x="0"
             y="0"
             width="100%"
             height="100%" />
          <use
             transform="matrix(0.49,0,0,0.49,85.901074,47.276875)"
             xlink:href="#Cmr10-32"
             id="use99"
             style="stroke-linecap:butt;stroke-linejoin:round"
             x="0"
             y="0"
             width="100%"
             height="100%" />
          <use
             transform="matrix(0.7,0,0,0.7,16,-41.293281)"
             xlink:href="#Cmmi10-52"
             id="use101"
             style="stroke-linecap:butt;stroke-linejoin:round"
             x="0"
             y="0"
             width="100%"
             height="100%" />
          <use
             transform="matrix(0.49,0,0,0.49,69.115234,-53.197656)"
             xlink:href="#Cmr10-31"
             id="use103"
             style="stroke-linecap:butt;stroke-linejoin:round"
             x="0"
             y="0"
             width="100%"
             height="100%" />
          <path
             d="m 0,12.775469 v 6.25 h 114.86522 v -6.25 z"
             id="path105"
             inkscape:connector-curvature="0"
             style="stroke-linecap:butt;stroke-linejoin:round" />
        </g>
      </g>
    </g>
    <g
       id="ytick_4"
       style="stroke-linecap:butt;stroke-linejoin:round">
      <g
         id="line2d_6"
         style="stroke-linecap:butt;stroke-linejoin:round">
        <g
           id="g113"
           style="stroke-linecap:butt;stroke-linejoin:round">
          <use
             style="stroke:#000000;stroke-width:0.80000001;stroke-linecap:butt;stroke-linejoin:round"
             x="94.589996"
             xlink:href="#mae491eee27"
             y="101.7792"
             id="use111"
             width="100%"
             height="100%" />
        </g>
      </g>
      <g
         id="text_5"
         style="stroke-linecap:butt;stroke-linejoin:round">
        <!-- $\frac{V_{s,1}}{R_4}$ -->
        <defs
           id="defs117">
          <path
             d="m 2.78125,16.5 v 3.515625 l 30.90625,46.09375 q 0.34375,0.5 1.03125,0.5 h 1.46875 q 1.125,0 1.125,-1.125 V 20.015625 H 47.125 V 16.5 H 37.3125 V 6.6875 q 0,-2.046875 2.921875,-2.609375 2.9375,-0.5625 6.78125,-0.5625 V 0 h -27.53125 v 3.515625 q 3.859375,0 6.78125,0.5625 2.9375,0.5625 2.9375,2.609375 V 16.5 Z m 3.328125,3.515625 H 29.78125 v 35.40625 z"
             id="Cmr10-34"
             inkscape:connector-curvature="0"
             style="stroke-linecap:butt;stroke-linejoin:round" />
        </defs>
        <g
           transform="matrix(0.16,0,0,-0.16,67.11,110.3392)"
           id="g133"
           style="stroke-linecap:butt;stroke-linejoin:round">
          <use
             transform="matrix(0.7,0,0,0.7,0,59.18125)"
             xlink:href="#Cmmi10-56"
             id="use119"
             style="stroke-linecap:butt;stroke-linejoin:round"
             x="0"
             y="0"
             width="100%"
             height="100%" />
          <use
             transform="matrix(0.49,0,0,0.49,40.810547,47.276875)"
             xlink:href="#Cmmi10-73"
             id="use121"
             style="stroke-linecap:butt;stroke-linejoin:round"
             x="0"
             y="0"
             width="100%"
             height="100%" />
          <use
             transform="matrix(0.49,0,0,0.49,63.731445,47.276875)"
             xlink:href="#Cmmi10-3b"
             id="use123"
             style="stroke-linecap:butt;stroke-linejoin:round"
             x="0"
             y="0"
             width="100%"
             height="100%" />
          <use
             transform="matrix(0.49,0,0,0.49,85.901074,47.276875)"
             xlink:href="#Cmr10-31"
             id="use125"
             style="stroke-linecap:butt;stroke-linejoin:round"
             x="0"
             y="0"
             width="100%"
             height="100%" />
          <use
             transform="matrix(0.7,0,0,0.7,16,-41.293281)"
             xlink:href="#Cmmi10-52"
             id="use127"
             style="stroke-linecap:butt;stroke-linejoin:round"
             x="0"
             y="0"
             width="100%"
             height="100%" />
          <use
             transform="matrix(0.49,0,0,0.49,69.115234,-53.197656)"
             xlink:href="#Cmr10-34"
             id="use129"
             style="stroke-linecap:butt;stroke-linejoin:round"
             x="0"
             y="0"
             width="100%"
             height="100%" />
          <path
             d="m 0,12.775469 v 6.25 h 114.86522 v -6.25 z"
             id="path131"
             inkscape:connector-curvature="0"
             style="stroke-linecap:butt;stroke-linejoin:round" />
        </g>
      </g>
    </g>
    <g
       id="ytick_5"
       style="stroke-linecap:butt;stroke-linejoin:round">
      <g
         id="line2d_7"
         style="stroke-linecap:butt;stroke-linejoin:round">
        <g
           id="g139"
           style="stroke-linecap:butt;stroke-linejoin:round">
          <use
             style="stroke:#000000;stroke-width:0.80000001;stroke-linecap:butt;stroke-linejoin:round"
             x="94.589996"
             xlink:href="#mae491eee27"
             y="64.281601"
             id="use137"
             width="100%"
             height="100%" />
        </g>
      </g>
      <g
         id="text_6"
         style="stroke-linecap:butt;stroke-linejoin:round">
        <!-- $\frac{V_{s,2}}{R_4}$ -->
        <g
           transform="matrix(0.16,0,0,-0.16,67.11,72.8416)"
           id="g156"
           style="stroke-linecap:butt;stroke-linejoin:round">
          <use
             transform="matrix(0.7,0,0,0.7,0,59.18125)"
             xlink:href="#Cmmi10-56"
             id="use142"
             style="stroke-linecap:butt;stroke-linejoin:round"
             x="0"
             y="0"
             width="100%"
             height="100%" />
          <use
             transform="matrix(0.49,0,0,0.49,40.810547,47.276875)"
             xlink:href="#Cmmi10-73"
             id="use144"
             style="stroke-linecap:butt;stroke-linejoin:round"
             x="0"
             y="0"
             width="100%"
             height="100%" />
          <use
             transform="matrix(0.49,0,0,0.49,63.731445,47.276875)"
             xlink:href="#Cmmi10-3b"
             id="use146"
             style="stroke-linecap:butt;stroke-linejoin:round"
             x="0"
             y="0"
             width="100%"
             height="100%" />
          <use
             transform="matrix(0.49,0,0,0.49,85.901074,47.276875)"
             xlink:href="#Cmr10-32"
             id="use148"
             style="stroke-linecap:butt;stroke-linejoin:round"
             x="0"
             y="0"
             width="100%"
             height="100%" />
          <use
             transform="matrix(0.7,0,0,0.7,16,-41.293281)"
             xlink:href="#Cmmi10-52"
             id="use150"
             style="stroke-linecap:butt;stroke-linejoin:round"
             x="0"
             y="0"
             width="100%"
             height="100%" />
          <use
             transform="matrix(0.49,0,0,0.49,69.115234,-53.197656)"
             xlink:href="#Cmr10-34"
             id="use152"
             style="stroke-linecap:butt;stroke-linejoin:round"
             x="0"
             y="0"
             width="100%"
             height="100%" />
          <path
             d="m 0,12.775469 v 6.25 h 114.86522 v -6.25 z"
             id="path154"
             inkscape:connector-curvature="0"
             style="stroke-linecap:butt;stroke-linejoin:round" />
        </g>
      </g>
    </g>
  </g>
  <g
     id="line2d_8"
     style="stroke-linecap:butt;stroke-linejoin:round">
    <path
       clip-path="url(#pa5edf77f9f)"
       d="m 94.59,476.7552 70.3562,-0.10862 4.69041,-0.22694 3.12694,-0.37623 2.08463,-0.4633 1.56347,-0.53633 1.56347,-0.78114 1.04232,-0.71005 1.04231,-0.91233 1.04232,-1.17221 1.04231,-1.50615 1.04231,-1.9352 1.04232,-2.48647 1.04231,-3.19479 1.04232,-4.10489 1.04231,-5.27425 1.04231,-6.77671 1.04232,-8.70718 1.04231,-11.18759 1.04232,-14.37458 1.04231,-18.46944 1.04231,-23.73082 1.04232,-30.49098 1.04231,-39.1769 1.04232,-50.33718 1.04231,-64.67665 1.04231,-83.10102 L 199.82847,-1 v 0"
       style="fill:none;stroke:#4682b4;stroke-width:1.5;stroke-linecap:square;stroke-linejoin:round"
       id="path161"
       inkscape:connector-curvature="0" />
  </g>
  <g
     id="line2d_9"
     style="stroke-linecap:butt;stroke-linejoin:round">
    <path
       clip-path="url(#pa5edf77f9f)"
       d="M 94.59,357.13095 627.73364,476.7552 v 0"
       style="fill:none;stroke:#ff0000;stroke-width:1.5;stroke-linecap:square;stroke-linejoin:round"
       id="path164"
       inkscape:connector-curvature="0" />
  </g>
  <g
     id="line2d_10"
     style="stroke-linecap:butt;stroke-linejoin:round">
    <path
       clip-path="url(#pa5edf77f9f)"
       d="M 193.22157,379.26144"
       style="fill:none;stroke:#000000;stroke-width:1.5;stroke-linecap:square;stroke-linejoin:round"
       id="path167"
       inkscape:connector-curvature="0" />
    <defs
       id="defs170">
      <path
         d="M 0,2 C 0.530406,2 1.03916,1.789267 1.414214,1.414214 1.789267,1.03916 2,0.530406 2,0 2,-0.530406 1.789267,-1.03916 1.414214,-1.414214 1.03916,-1.789267 0.530406,-2 0,-2 -0.530406,-2 -1.03916,-1.789267 -1.414214,-1.414214 -1.789267,-1.03916 -2,-0.530406 -2,0 -2,0.530406 -1.789267,1.03916 -1.414214,1.414214 -1.03916,1.789267 -0.530406,2 0,2 Z"
         id="mf2fb326cd4"
         style="stroke:#000000;stroke-linecap:butt;stroke-linejoin:round"
         inkscape:connector-curvature="0" />
    </defs>
    <g
       clip-path="url(#pa5edf77f9f)"
       id="g174"
       style="stroke-linecap:butt;stroke-linejoin:round">
      <use
         style="stroke:#000000;stroke-linecap:butt;stroke-linejoin:round"
         x="193.22157"
         xlink:href="#mf2fb326cd4"
         y="379.26144"
         id="use172"
         width="100%"
         height="100%" />
    </g>
  </g>
  <g
     id="line2d_11"
     style="stroke-linecap:butt;stroke-linejoin:round">
    <path
       clip-path="url(#pa5edf77f9f)"
       d="m 94.59,476.7552 281.42479,-0.10862 19.28281,-0.23763 11.46546,-0.34358 8.33851,-0.44901 6.77504,-0.57258 5.73273,-0.70425 4.69041,-0.78694 4.16926,-0.91233 3.6481,-1.00912 3.6481,-1.25661 3.12694,-1.31967 3.12694,-1.59262 2.60579,-1.57607 2.60578,-1.84337 2.60579,-2.156 2.08462,-1.98523 2.08463,-2.25031 2.08463,-2.55076 2.08463,-2.89135 2.08463,-3.2774 2.08463,-3.715 2.08462,-4.21103 2.08463,-4.77329 2.08463,-5.41062 2.08463,-6.13304 2.08462,-6.95194 2.08463,-7.88016 2.08463,-8.93232 2.08463,-10.12497 2.08463,-11.47687 2.08463,-13.00925 2.08462,-14.74626 2.08463,-16.71519 2.08463,-18.94701 2.08463,-21.47682 2.08463,-24.34442 2.08462,-27.59489 2.08463,-31.27938 2.08463,-35.45581 2.08463,-40.1899 2.08463,-45.556061 L 514.1214,38.368786 515.55028,-1 v 0"
       style="fill:none;stroke:#6495ed;stroke-width:1.5;stroke-linecap:square;stroke-linejoin:round"
       id="path177"
       inkscape:connector-curvature="0" />
  </g>
  <g
     id="line2d_12"
     style="stroke-linecap:butt;stroke-linejoin:round">
    <path
       clip-path="url(#pa5edf77f9f)"
       d="m 94.59,101.7792 533.14364,374.976 v 0"
       style="fill:none;stroke:#f08080;stroke-width:1.5;stroke-linecap:square;stroke-linejoin:round"
       id="path180"
       inkscape:connector-curvature="0" />
  </g>
  <g
     id="line2d_13"
     style="stroke-linecap:butt;stroke-linejoin:round">
    <path
       clip-path="url(#pa5edf77f9f)"
       d="M 489.11629,379.26144"
       style="fill:none;stroke:#000000;stroke-width:1.5;stroke-linecap:square;stroke-linejoin:round"
       id="path183"
       inkscape:connector-curvature="0" />
    <g
       clip-path="url(#pa5edf77f9f)"
       id="g187"
       style="stroke-linecap:butt;stroke-linejoin:round">
      <use
         style="stroke:#000000;stroke-linecap:butt;stroke-linejoin:round"
         x="489.1163"
         xlink:href="#mf2fb326cd4"
         y="379.26144"
         id="use185"
         width="100%"
         height="100%" />
    </g>
  </g>
  <g
     id="line2d_14"
     style="stroke-linecap:butt;stroke-linejoin:round">
    <path
       clip-path="url(#pa5edf77f9f)"
       d="M 94.59,345.16853 681.048,476.7552 v 0"
       style="fill:none;stroke:#ff0000;stroke-width:1.5;stroke-linecap:butt;stroke-linejoin:round;stroke-dasharray:1.5, 2.475;stroke-dashoffset:0"
       id="path190"
       inkscape:connector-curvature="0" />
  </g>
  <g
     id="line2d_15"
     style="stroke-linecap:butt;stroke-linejoin:round">
    <path
       clip-path="url(#pa5edf77f9f)"
       d="M 193.69877,367.40609"
       style="fill:none;stroke:#000000;stroke-width:1.5;stroke-linecap:square;stroke-linejoin:round"
       id="path193"
       inkscape:connector-curvature="0" />
    <defs
       id="defs196">
      <path
         d="m -3,3 6,-6 m -6,0 6,6"
         id="mb47372aa0c"
         style="stroke:#000000;stroke-linecap:butt;stroke-linejoin:round"
         inkscape:connector-curvature="0" />
    </defs>
    <g
       clip-path="url(#pa5edf77f9f)"
       id="g200"
       style="stroke-linecap:butt;stroke-linejoin:round">
      <use
         style="stroke:#000000;stroke-linecap:butt;stroke-linejoin:round"
         x="193.69878"
         xlink:href="#mb47372aa0c"
         y="367.4061"
         id="use198"
         width="100%"
         height="100%" />
    </g>
  </g>
  <g
     id="line2d_16"
     style="stroke-linecap:butt;stroke-linejoin:round">
    <path
       clip-path="url(#pa5edf77f9f)"
       d="m 94.59,64.2816 586.458,412.4736 v 0"
       style="fill:none;stroke:#f08080;stroke-width:1.5;stroke-linecap:butt;stroke-linejoin:round;stroke-dasharray:1.5, 2.475;stroke-dashoffset:0"
       id="path203"
       inkscape:connector-curvature="0" />
  </g>
  <g
     id="line2d_17"
     style="stroke-linecap:butt;stroke-linejoin:round">
    <path
       clip-path="url(#pa5edf77f9f)"
       d="M 494.09224,345.26357"
       style="fill:none;stroke:#000000;stroke-width:1.5;stroke-linecap:square;stroke-linejoin:round"
       id="path206"
       inkscape:connector-curvature="0" />
    <g
       clip-path="url(#pa5edf77f9f)"
       id="g210"
       style="stroke-linecap:butt;stroke-linejoin:round">
      <use
         style="stroke:#000000;stroke-linecap:butt;stroke-linejoin:round"
         x="494.09222"
         xlink:href="#mb47372aa0c"
         y="345.26358"
         id="use208"
         width="100%"
         height="100%" />
    </g>
  </g>
  <g
     id="line2d_18"
     style="stroke-linecap:butt;stroke-linejoin:round">
    <path
       clip-path="url(#pa5edf77f9f)"
       d="M 94.59,379.26144 H 681.048"
       style="fill:none;stroke:#000000;stroke-width:1.5;stroke-linecap:butt;stroke-linejoin:round;stroke-dasharray:1.5, 2.475;stroke-dashoffset:0"
       id="path213"
       inkscape:connector-curvature="0" />
  </g>
  <g
     id="patch_3"
     style="stroke-linecap:butt;stroke-linejoin:round">
    <path
       d="M 94.59,476.7552 V 64.2816"
       style="fill:none;stroke:#000000;stroke-width:0.80000001;stroke-linecap:square;stroke-linejoin:miter"
       id="path216"
       inkscape:connector-curvature="0" />
  </g>
  <g
     id="patch_4"
     style="stroke-linecap:butt;stroke-linejoin:round">
    <path
       d="M 681.048,476.7552 V 64.2816"
       style="fill:none;stroke:#000000;stroke-width:0.80000001;stroke-linecap:square;stroke-linejoin:miter"
       id="path219"
       inkscape:connector-curvature="0" />
  </g>
  <g
     id="patch_5"
     style="stroke-linecap:butt;stroke-linejoin:round">
    <path
       d="M 94.59,476.7552 H 681.048"
       style="fill:none;stroke:#000000;stroke-width:0.80000001;stroke-linecap:square;stroke-linejoin:miter"
       id="path222"
       inkscape:connector-curvature="0" />
  </g>
  <g
     id="patch_6"
     style="stroke-linecap:butt;stroke-linejoin:round">
    <path
       d="M 94.59,64.2816 H 681.048"
       style="fill:none;stroke:#000000;stroke-width:0.80000001;stroke-linecap:square;stroke-linejoin:miter"
       id="path225"
       inkscape:connector-curvature="0" />
  </g>
  <g
     id="text_7"
     style="stroke-linecap:butt;stroke-linejoin:round">
    <!-- $\frac{V_{s,1}}{R_1}$ -->
    <g
       transform="matrix(0.16,0,0,-0.16,41.275636,357.13095)"
       id="g242"
       style="stroke-linecap:butt;stroke-linejoin:round">
      <use
         transform="matrix(0.7,0,0,0.7,0,59.18125)"
         xlink:href="#Cmmi10-56"
         id="use228"
         style="stroke-linecap:butt;stroke-linejoin:round"
         x="0"
         y="0"
         width="100%"
         height="100%" />
      <use
         transform="matrix(0.49,0,0,0.49,40.810547,47.276875)"
         xlink:href="#Cmmi10-73"
         id="use230"
         style="stroke-linecap:butt;stroke-linejoin:round"
         x="0"
         y="0"
         width="100%"
         height="100%" />
      <use
         transform="matrix(0.49,0,0,0.49,63.731445,47.276875)"
         xlink:href="#Cmmi10-3b"
         id="use232"
         style="stroke-linecap:butt;stroke-linejoin:round"
         x="0"
         y="0"
         width="100%"
         height="100%" />
      <use
         transform="matrix(0.49,0,0,0.49,85.901074,47.276875)"
         xlink:href="#Cmr10-31"
         id="use234"
         style="stroke-linecap:butt;stroke-linejoin:round"
         x="0"
         y="0"
         width="100%"
         height="100%" />
      <use
         transform="matrix(0.7,0,0,0.7,16,-41.293281)"
         xlink:href="#Cmmi10-52"
         id="use236"
         style="stroke-linecap:butt;stroke-linejoin:round"
         x="0"
         y="0"
         width="100%"
         height="100%" />
      <use
         transform="matrix(0.49,0,0,0.49,69.115234,-53.197656)"
         xlink:href="#Cmr10-31"
         id="use238"
         style="stroke-linecap:butt;stroke-linejoin:round"
         x="0"
         y="0"
         width="100%"
         height="100%" />
      <path
         d="m 0,12.775469 v 6.25 h 114.86522 v -6.25 z"
         id="path240"
         inkscape:connector-curvature="0"
         style="stroke-linecap:butt;stroke-linejoin:round" />
    </g>
  </g>
  <defs
     id="defs250">
    <clipPath
       id="pa5edf77f9f">
      <rect
         height="412.4736"
         width="586.458"
         x="94.59"
         y="64.2816"
         id="rect247" />
    </clipPath>
  </defs>
</svg>
